<svg width="91" height="82" viewBox="0 0 91 82" xmlns="http://www.w3.org/2000/svg">
<path d="M0.635143 52.4776L16.3242 48.4379C16.5716 48.3742 16.8238 48.5231 16.8875 48.7705L20.8888 64.3108C20.9525 64.5582 20.8036 64.8104 20.5562 64.8741L4.86718 68.9137C4.61977 68.9774 4.36757 68.8285 4.30386 68.5811L0.302516 53.0409C0.238813 52.7935 0.387734 52.5413 0.635143 52.4776ZM69.6811 34.6988L85.3701 30.6591C85.6175 30.5954 85.8697 30.7443 85.9334 30.9917L89.9348 46.532C89.9985 46.7794 89.8495 47.0316 89.6021 47.0953L73.9131 51.1349C73.6657 51.1986 73.4135 51.0497 73.3498 50.8023L69.3484 35.2621C69.2847 35.0147 69.4336 34.7625 69.6811 34.6988ZM22.1551 65.0558L72.6048 52.0658C72.8522 52.0021 73.1044 52.151 73.1681 52.3984L77.1695 67.9387C77.2332 68.1861 77.0843 68.4383 76.8369 68.502L26.3871 81.4919C26.1397 81.5556 25.8875 81.4067 25.8238 81.1593L21.8225 65.6191C21.7588 65.3717 21.9077 65.1195 22.1551 65.0558ZM8.82638 13.2919L24.5154 9.25223C24.7628 9.18853 25.015 9.33745 25.0787 9.58486L29.0801 25.1251C29.1438 25.3725 28.9949 25.6247 28.7475 25.6884L13.0584 29.7281C12.811 29.7918 12.5588 29.6428 12.4951 29.3954L8.49375 13.8552C8.43005 13.6078 8.57897 13.3556 8.82638 13.2919ZM43.5881 4.34218L59.2771 0.302516C59.5245 0.238813 59.7767 0.387735 59.8404 0.635142L63.8418 16.1754C63.9055 16.4228 63.7566 16.675 63.5092 16.7387L47.8201 20.7783C47.5727 20.842 47.3205 20.6931 47.2568 20.4457L43.2555 4.9055C43.1918 4.65809 43.3407 4.40589 43.5881 4.34218Z" stroke-width="0.575446"/>
</svg>