<svg width="125" height="121" viewBox="0 0 125 121" xmlns="http://www.w3.org/2000/svg">
<path d="M40.6832 50.5486L4.59796 51.2607C2.17871 51.3084 0.311616 53.4047 0.5431 55.8134L2.48438 76.0124C2.71328 78.3941 4.901 80.0911 7.26485 79.7206L43.1226 74.0994L26.2747 105.466C25.1379 107.582 26.027 110.219 28.2133 111.214L46.7663 119.664C48.9565 120.662 51.5334 119.596 52.3795 117.343L64.8946 84.017L84.1896 114.756C85.4616 116.783 88.1779 117.319 90.125 115.929L106.641 104.132C108.609 102.726 108.966 99.9447 107.417 98.088L84.3559 70.4395L120.352 69.6889C122.769 69.6385 124.633 67.5431 124.402 65.1363L122.46 44.9327C122.231 42.551 120.044 40.854 117.68 41.2246L81.8245 46.8453L98.7515 15.5284C99.8958 13.4112 99.0082 10.7677 96.818 9.77019L78.265 1.32015C76.0787 0.324411 73.5061 1.38428 72.6556 3.63105L60.0514 36.9302L40.7551 6.18893C39.483 4.16238 36.7667 3.62584 34.8197 5.01653L18.307 16.8106C16.338 18.217 15.9821 21.0016 17.534 22.858L40.6832 50.5486Z" stroke-width="0.755619"/>
</svg>
