<svg width="129" height="76" viewBox="0 0 129 76" xmlns="http://www.w3.org/2000/svg">
<path d="M17.285 53.8866L36.1635 33.061C36.2217 32.9968 36.2396 32.9052 36.2099 32.8235L31.8651 20.8821C31.8046 20.7156 31.5892 20.6758 31.4743 20.81L1.05623 56.3078C1.00133 56.3719 0.985217 56.461 1.01415 56.5406L3.93535 64.5694C3.96622 64.6543 4.04291 64.7134 4.13208 64.7211L48.8774 68.6014C49.0456 68.616 49.1718 68.4491 49.1136 68.289L44.7621 56.3291C44.7307 56.243 44.6522 56.1834 44.5616 56.1771L17.4391 54.2762C17.2465 54.2627 17.1546 54.0304 17.285 53.8866Z" />
<path d="M17.285 53.8866L36.1635 33.061C36.2217 32.9968 36.2396 32.9052 36.2099 32.8235L31.8651 20.8821C31.8046 20.7156 31.5892 20.6758 31.4743 20.81L1.05623 56.3078C1.00133 56.3719 0.985217 56.461 1.01415 56.5406L3.93535 64.5694C3.96622 64.6543 4.04291 64.7134 4.13208 64.7211L48.8774 68.6014C49.0456 68.616 49.1718 68.4491 49.1136 68.289L44.7621 56.3291C44.7307 56.243 44.6522 56.1834 44.5616 56.1771L17.4391 54.2762C17.2465 54.2627 17.1546 54.0304 17.285 53.8866Z" />
<path d="M17.285 53.8866L36.1635 33.061C36.2217 32.9968 36.2396 32.9052 36.2099 32.8235L31.8651 20.8821C31.8046 20.7156 31.5892 20.6758 31.4743 20.81L1.05623 56.3078C1.00133 56.3719 0.985217 56.461 1.01415 56.5406L3.93535 64.5694C3.96622 64.6543 4.04291 64.7134 4.13208 64.7211L48.8774 68.6014C49.0456 68.616 49.1718 68.4491 49.1136 68.289L44.7621 56.3291C44.7307 56.243 44.6522 56.1834 44.5616 56.1771L17.4391 54.2762C17.2465 54.2627 17.1546 54.0304 17.285 53.8866Z" />
<path d="M110.963 19.1229L83.2249 15.5968C83.1393 15.5859 83.067 15.5278 83.0372 15.446L78.6925 3.50466C78.6319 3.33815 78.7705 3.1671 78.9441 3.19416L124.883 10.3559C124.966 10.3689 125.036 10.4262 125.065 10.5058L127.986 18.5346C128.017 18.6195 127.996 18.7147 127.933 18.7789L96.3212 50.9952C96.2023 51.1163 95.9992 51.0717 95.9409 50.9116L91.5895 38.9517C91.5581 38.8656 91.5798 38.7689 91.6448 38.7047L111.096 19.5206C111.234 19.3843 111.155 19.1472 110.963 19.1229Z" />
<path d="M110.963 19.1229L83.2249 15.5968C83.1393 15.5859 83.067 15.5278 83.0372 15.446L78.6925 3.50466C78.6319 3.33815 78.7705 3.1671 78.9441 3.19416L124.883 10.3559C124.966 10.3689 125.036 10.4262 125.065 10.5058L127.986 18.5346C128.017 18.6195 127.996 18.7147 127.933 18.7789L96.3212 50.9952C96.2023 51.1163 95.9992 51.0717 95.9409 50.9116L91.5895 38.9517C91.5581 38.8656 91.5798 38.7689 91.6448 38.7047L111.096 19.5206C111.234 19.3843 111.155 19.1472 110.963 19.1229Z" />
<path d="M110.963 19.1229L83.2249 15.5968C83.1393 15.5859 83.067 15.5278 83.0372 15.446L78.6925 3.50466C78.6319 3.33815 78.7705 3.1671 78.9441 3.19416L124.883 10.3559C124.966 10.3689 125.036 10.4262 125.065 10.5058L127.986 18.5346C128.017 18.6195 127.996 18.7147 127.933 18.7789L96.3212 50.9952C96.2023 51.1163 95.9992 51.0717 95.9409 50.9116L91.5895 38.9517C91.5581 38.8656 91.5798 38.7689 91.6448 38.7047L111.096 19.5206C111.234 19.3843 111.155 19.1472 110.963 19.1229Z" />
<path d="M69.043 1.0145L57.181 5.41647C57.0901 5.45021 57.0297 5.53777 57.0299 5.63561L57.186 74.7674C57.1863 74.9292 57.3458 75.0413 57.4961 74.9855L69.3581 70.5835C69.4491 70.5498 69.5094 70.4622 69.5092 70.3644L69.3532 1.23257C69.3528 1.07084 69.1933 0.958714 69.043 1.0145Z" />
<path d="M17.285 53.8866L36.1635 33.061C36.2217 32.9968 36.2396 32.9052 36.2099 32.8235L31.8651 20.8821C31.8046 20.7156 31.5892 20.6758 31.4743 20.81L1.05623 56.3078C1.00133 56.3719 0.985217 56.461 1.01415 56.5406L3.93535 64.5694C3.96622 64.6543 4.04291 64.7134 4.13208 64.7211L48.8774 68.6014C49.0456 68.616 49.1718 68.4491 49.1136 68.289L44.7621 56.3291C44.7307 56.243 44.6522 56.1834 44.5616 56.1771L17.4391 54.2762C17.2465 54.2627 17.1546 54.0304 17.285 53.8866Z"  stroke-width="0.352168"/>
<path d="M110.963 19.1229L83.2249 15.5968C83.1393 15.5859 83.067 15.5278 83.0372 15.446L78.6925 3.50466C78.6319 3.33815 78.7705 3.1671 78.9441 3.19416L124.883 10.3559C124.966 10.3689 125.036 10.4262 125.065 10.5058L127.986 18.5346C128.017 18.6195 127.996 18.7147 127.933 18.7789L96.3212 50.9952C96.2023 51.1163 95.9992 51.0717 95.9409 50.9116L91.5895 38.9517C91.5581 38.8656 91.5798 38.7689 91.6448 38.7047L111.096 19.5206C111.234 19.3843 111.155 19.1472 110.963 19.1229Z"  stroke-width="0.352168"/>
<path d="M69.043 1.0145L57.181 5.41647C57.0901 5.45021 57.0297 5.53777 57.0299 5.63561L57.186 74.7674C57.1863 74.9292 57.3458 75.0413 57.4961 74.9855L69.3581 70.5835C69.4491 70.5498 69.5094 70.4622 69.5092 70.3644L69.3532 1.23257C69.3528 1.07084 69.1933 0.958714 69.043 1.0145Z"  stroke-width="0.352168"/>
</svg>
