<svg width="812" height="812" viewBox="0 0 812 812" fill="none" xmlns="http://www.w3.org/2000/svg">
<path d="M723.188 735.875H710.5V664.825C771.4 621.688 812 550.638 812 469.438C812 299.425 636.912 180.163 479.587 246.137C487.2 215.687 477.05 187.775 454.212 170.012L441.525 124.338L494.813 139.563V38.0625L441.525 53.2875L456.75 0H355.25L370.475 53.2875L317.188 38.0625V139.563L370.475 124.338L357.788 170.012C337.488 187.775 324.8 215.687 332.413 246.137C175.088 180.163 0 299.425 0 469.438C0 550.638 40.6 621.688 101.5 664.825V735.875H88.8125C68.5125 735.875 50.75 753.638 50.75 773.938C50.75 794.238 68.5125 812 88.8125 812H723.188C743.488 812 761.25 794.238 761.25 773.938C761.25 753.638 743.488 735.875 723.188 735.875ZM203 710.5C187.775 710.5 177.625 700.35 177.625 685.125C177.625 669.9 187.775 659.75 203 659.75C218.225 659.75 228.375 669.9 228.375 685.125C228.375 700.35 215.688 710.5 203 710.5ZM304.5 710.5C289.275 710.5 279.125 700.35 279.125 685.125C279.125 669.9 289.275 659.75 304.5 659.75C319.725 659.75 329.875 669.9 329.875 685.125C329.875 700.35 317.188 710.5 304.5 710.5ZM329.875 609H111.65C73.5875 573.475 50.75 525.263 50.75 469.438C50.75 327.338 200.463 235.988 324.8 299.425C327.338 299.425 327.338 301.962 329.875 301.962V609ZM406 63.4375C421.225 63.4375 431.375 73.5875 431.375 88.8125C431.375 104.038 421.225 114.188 406 114.188C390.775 114.188 380.625 104.038 380.625 88.8125C380.625 73.5875 390.775 63.4375 406 63.4375ZM406 279.125C421.225 279.125 431.375 289.275 431.375 304.5C431.375 319.725 421.225 329.875 406 329.875C390.775 329.875 380.625 319.725 380.625 304.5C380.625 289.275 390.775 279.125 406 279.125ZM406 456.75C421.225 456.75 431.375 466.9 431.375 482.125C431.375 497.35 421.225 507.5 406 507.5C390.775 507.5 380.625 497.35 380.625 482.125C380.625 466.9 390.775 456.75 406 456.75ZM406 710.5C390.775 710.5 380.625 700.35 380.625 685.125C380.625 669.9 390.775 659.75 406 659.75C421.225 659.75 431.375 669.9 431.375 685.125C431.375 700.35 418.688 710.5 406 710.5ZM507.5 710.5C492.275 710.5 482.125 700.35 482.125 685.125C482.125 669.9 492.275 659.75 507.5 659.75C522.725 659.75 532.875 669.9 532.875 685.125C532.875 700.35 520.188 710.5 507.5 710.5ZM609 710.5C593.775 710.5 583.625 700.35 583.625 685.125C583.625 669.9 593.775 659.75 609 659.75C624.225 659.75 634.375 669.9 634.375 685.125C634.375 700.35 621.688 710.5 609 710.5ZM482.125 609V301.962C484.663 301.962 484.663 299.425 487.2 299.425C611.538 235.988 761.25 327.338 761.25 469.438C761.25 525.263 738.413 573.475 700.35 609H482.125Z" fill="#F3F3F1"/>
</svg>
